<svg xmlns="http://www.w3.org/2000/svg" xmlns:xlink="http://www.w3.org/1999/xlink" version="1.1" width="55px" viewBox="0 0 1000 1000" xml:space="preserve">
<desc>Created with Fabric.js 3.5.0</desc>
<defs>
</defs>
<rect x="0" y="0" width="100%" height="100%" fill="rgba(255,255,255,0)"/>
<g transform="matrix(13.986 0 0 13.986 499.9995 499.9995)" id="101594">
<circle style="stroke: none; stroke-width: 1; stroke-dasharray: none; stroke-linecap: butt; stroke-dashoffset: 0; stroke-linejoin: miter; stroke-miterlimit: 4; is-custom-font: none; font-file-url: none; fill: rgb(48,239,166); fill-rule: nonzero; opacity: 1;" vector-effect="non-scaling-stroke" cx="0" cy="0" r="32.5"/>
</g>
<g transform="matrix(13.6353 0 0 13.6353 512.5508 511.9996)" id="939982">
<path style="stroke: none; stroke-width: 1; stroke-dasharray: none; stroke-linecap: butt; stroke-dashoffset: 0; stroke-linejoin: miter; stroke-miterlimit: 4; is-custom-font: none; font-file-url: none; fill: rgb(60,73,83); fill-rule: evenodd; opacity: 1;" vector-effect="non-scaling-stroke" transform=" translate(-12.2872, -12.5001)" d="M 13.3947 1.89917 C 13.3947 1.07074 12.7231 0.39917 11.8947 0.39917 C 11.0662 0.39917 10.3947 1.07074 10.3947 1.89917 V 11.0496 L 1.68628 11.0496 C 0.857853 11.0496 0.186279 11.7211 0.186279 12.5496 C 0.186279 13.378 0.857853 14.0496 1.68628 14.0496 L 10.3947 14.0496 V 23.101 C 10.3947 23.9294 11.0662 24.601 11.8947 24.601 C 12.7231 24.601 13.3947 23.9294 13.3947 23.101 V 14.0496 L 22.8881 14.0496 C 23.7165 14.0496 24.3881 13.378 24.3881 12.5496 C 24.3881 11.7211 23.7165 11.0496 22.8881 11.0496 L 13.3947 11.0496 V 1.89917 Z" stroke-linecap="round"/>
</g>
</svg>